# xmcd
#
# Track frame offsets: 
#        150
#        13752
#        26092
#        35402
#        48565
#        59867
#        71917
#        83410
#        94530
#        104427
#        116595
#        125275
#        138742
#        152440
#        166007
#        176327
#        189080
#        200840
#        212710
#        224005
#        235752
#        248665
#
# Disc length: 3493 seconds
#
# Revision: 2
# Processed by: cddbd v1.5.2PL0 Copyright (c) Steve Scherf et al.
# Submitted via: ExactAudioCopyFreeDBPlugin 1.0
#
DISCID=360da316
DTITLE=Various Artist - Dig These Blues
DYEAR=1992
DGENRE=Blues
TTITLE0=Al Simmons with Slim Green and The Cats From Fresno - Old Folk's
TTITLE0=Boogie
TTITLE1=Sailor Boy - Country Home
TTITLE2=Sidney Maiden with Slim Green and The Cats From Fresno - Hand Me
TTITLE2=Down Baby
TTITLE3=Hozay - Going Back To The Plow
TTITLE4=Moose John - Wrong Doin' Woman
TTITLE5=T W Sams - Springtime Blues
TTITLE6=Moose John - Talkin' 'Bout Me
TTITLE7=Jimmy Nolen - Come On Home
TTITLE8=Roy 'Happy' Easter with Preston Love and His Orchestra - If You 
TTITLE8=Ever Get Lonesome
TTITLE9=Slim Green with the Cats From Fresno - My Woman Done Quit Me
TTITLE10=Al Simmons with Slim Green and The Cats From Fresno - You Ain't
TTITLE10=Too Old
TTITLE11=Hozay - I've Got An Expensive Woman
TTITLE12=Sailor Boy - What Have I Done Wrong Part 1
TTITLE13=Sailor Boy - What Have I Done Wrong Part 2
TTITLE14=Abe Moore and Orchestra - Moore Boogie
TTITLE15=Little Billy Robbins - Singing The Blues
TTITLE16=Larry Waters - Fully Grown Woman
TTITLE17=Larry Waters - Don't Tell Me That You Love Me
TTITLE18=Billy Robbins with Johnny Otis Orchestra - Bring Her Back To 
TTITLE18=Me
TTITLE19=Abe Moore and Orchestra - S And J
TTITLE20=Sugarcane and His Violin - Elim Stole My Baby (Boo Hoo)
TTITLE21=Sugarcane and His Violin - They Say You Never Can Miss
EXTD=
EXTT0=
EXTT1=
EXTT2=
EXTT3=
EXTT4=
EXTT5=
EXTT6=
EXTT7=
EXTT8=
EXTT9=
EXTT10=
EXTT11=
EXTT12=
EXTT13=
EXTT14=
EXTT15=
EXTT16=
EXTT17=
EXTT18=
EXTT19=
EXTT20=
EXTT21=
PLAYORDER=
